<svg width="20" height="20" viewBox="0 0 20 20" fill="none" xmlns="http://www.w3.org/2000/svg">
<circle cx="10" cy="10" r="10" fill="#191A23"/>
<path d="M13 7.00001C13 6.72386 12.7761 6.50001 12.5 6.50001L8 6.5C7.72386 6.5 7.5 6.72386 7.5 7C7.5 7.27615 7.72386 7.5 8 7.5L12 7.50001L12 11.5C12 11.7761 12.2239 12 12.5 12C12.7761 12 13 11.7761 13 11.5L13 7.00001ZM6.64645 12.1464C6.45118 12.3417 6.45118 12.6583 6.64645 12.8536C6.84171 13.0488 7.15829 13.0488 7.35355 12.8536L6.64645 12.1464ZM12.1464 6.64645L6.64645 12.1464L7.35355 12.8536L12.8536 7.35356L12.1464 6.64645Z" fill="#B9FF66"/>
</svg>
