<svg width="89" height="91" viewBox="0 0 89 91" fill="none" xmlns="http://www.w3.org/2000/svg">
<path d="M80.3434 18.7042C78.6016 16.4401 76.0116 15.2905 72.6602 15.2905C66.9829 15.2905 59.6543 19.1788 53.0523 25.6933C50.6173 28.0636 48.4487 30.6987 46.5859 33.5507V20.2124C46.5859 19.653 46.3662 19.1164 45.975 18.7208C45.5838 18.3253 45.0532 18.103 44.5 18.103C43.9468 18.103 43.4162 18.3253 43.025 18.7208C42.6338 19.1164 42.4141 19.653 42.4141 20.2124V33.5507C40.5578 30.6998 38.3963 28.0647 35.9685 25.6933C29.3735 19.1788 22.0414 15.2905 16.3642 15.2905C12.9954 15.2905 10.4054 16.4401 8.6636 18.7042C6.74106 21.2038 5.98317 24.9233 6.34821 30.0737C6.66457 34.5491 7.78055 39.4007 8.71574 43.1272C10.899 51.8249 15.9366 54.7288 19.7643 55.671C18.7425 57.3134 18.0507 59.1433 17.7282 61.0561C17.4058 62.9689 17.4591 64.9272 17.885 66.8191C18.311 68.7111 19.1013 70.4997 20.2109 72.0828C21.3204 73.6659 22.7274 75.0126 24.3516 76.0458C25.9758 77.079 27.7853 77.7787 29.6768 78.1047C31.5684 78.4308 33.5049 78.3769 35.3759 77.9461C37.2468 77.5154 39.0155 76.7162 40.5811 75.5942C42.1466 74.4722 43.4782 73.0494 44.5 71.4069C46.5635 74.7244 49.8458 77.0771 53.6247 77.9474C57.4035 78.8177 61.3695 78.1343 64.6502 76.0476C67.9308 73.9608 70.2573 70.6417 71.1179 66.8204C71.9785 62.999 71.3027 58.9885 69.2392 55.671C73.0634 54.7464 78.1045 51.8249 80.2877 43.1272C82.5857 33.9972 84.3831 23.9565 80.3434 18.7042ZM31.9844 74.353C29.3341 74.3147 26.7967 73.2615 24.8842 71.4057C22.9716 69.55 21.8261 67.0298 21.6788 64.3536C21.5315 61.6774 22.3933 59.0442 24.0903 56.9853C25.7874 54.9263 28.1935 53.5948 30.8232 53.2593C31.0971 53.229 31.3625 53.1445 31.6041 53.0106C31.8458 52.8766 32.0589 52.6959 32.2315 52.4786C32.404 52.2614 32.5326 52.0119 32.6098 51.7444C32.687 51.4769 32.7113 51.1966 32.6814 50.9196C32.6515 50.6426 32.568 50.3743 32.4355 50.1299C32.303 49.8856 32.1243 49.67 31.9095 49.4955C31.6946 49.321 31.4479 49.191 31.1834 49.113C30.9188 49.0349 30.6417 49.0103 30.3678 49.0405C27.8126 49.3292 25.3793 50.2999 23.3173 51.853C20.1884 51.962 14.9318 50.7421 12.759 42.0937C11.6291 37.5901 8.62535 25.63 11.9559 21.2987C12.8807 20.0929 14.3234 19.5093 16.3642 19.5093C20.842 19.5093 27.3918 23.1233 33.0517 28.7132C38.8297 34.412 42.4141 40.8104 42.4141 45.4089V63.8062C42.4141 66.6034 41.3152 69.286 39.3593 71.2639C37.4033 73.2418 34.7505 74.353 31.9844 74.353ZM76.2445 42.0901C74.0751 50.7386 68.8359 51.955 65.707 51.853C63.6459 50.2984 61.2122 49.3276 58.6566 49.0405C58.3826 49.0091 58.1053 49.0326 57.8403 49.1096C57.5754 49.1866 57.328 49.3156 57.1123 49.4893C56.8967 49.663 56.717 49.8779 56.5835 50.1218C56.45 50.3657 56.3653 50.6338 56.3342 50.9108C56.3032 51.1879 56.3264 51.4683 56.4025 51.7363C56.4787 52.0042 56.6063 52.2543 56.778 52.4724C56.9498 52.6905 57.1623 52.8722 57.4035 53.0072C57.6447 53.1422 57.9098 53.2279 58.1838 53.2593C60.1931 53.4799 62.0964 54.2841 63.6637 55.5747C65.231 56.8653 66.3953 58.5871 67.016 60.5323C67.6367 62.4774 67.6872 64.5627 67.1615 66.5362C66.6358 68.5098 65.5563 70.2873 64.0534 71.654C62.5505 73.0207 60.6885 73.9182 58.6922 74.2381C56.6959 74.558 54.6508 74.2866 52.8037 73.4567C50.9566 72.6269 49.3865 71.274 48.2832 69.5615C47.1798 67.849 46.5904 65.8501 46.5859 63.8062V45.4089C46.5859 40.8104 50.1737 34.412 55.9483 28.7132C61.6151 23.1233 68.165 19.5093 72.6602 19.5093C74.7009 19.5093 76.1367 20.0929 77.0684 21.2952C80.3816 25.6265 77.3779 37.5866 76.248 42.0901H76.2445Z" fill="#191A23"/>
</svg>
