<svg width="233" height="104" viewBox="0 0 233 104" fill="none" xmlns="http://www.w3.org/2000/svg">
<path d="M226.648 31.93C227.389 35.3636 225.439 39.345 220.939 43.6562C216.462 47.9446 209.581 52.4406 200.791 56.8743C183.218 65.7382 158.116 74.3013 129.656 80.4503C101.195 86.5994 74.7977 89.1628 55.1322 88.3446C45.2956 87.9353 37.1725 86.6809 31.325 84.6231C25.4463 82.5543 22.0261 79.7332 21.2842 76.2997C20.5424 72.8661 22.4929 68.8846 26.9932 64.5734C31.4695 60.2851 38.3503 55.7891 47.1405 51.3554C64.7142 42.4915 89.8154 33.9284 118.276 27.7793C146.737 21.6303 173.134 19.0669 192.8 19.8851C202.636 20.2944 210.759 21.5487 216.607 23.6066C222.485 25.6753 225.906 28.4964 226.648 31.93Z" stroke="#191A23"/>
<path d="M211.648 26.93C212.389 30.3636 210.439 34.345 205.939 38.6562C201.462 42.9446 194.581 47.4406 185.791 51.8743C168.218 60.7382 143.116 69.3013 114.656 75.4503C86.1952 81.5994 59.7977 84.1628 40.1322 83.3446C30.2956 82.9353 22.1725 81.6809 16.325 79.6231C10.4463 77.5543 7.02605 74.7332 6.28422 71.2997C5.54238 67.8661 7.49291 63.8846 11.9932 59.5734C16.4695 55.2851 23.3503 50.7891 32.1405 46.3554C49.7142 37.4915 74.8154 28.9284 103.276 22.7793C131.737 16.6303 158.134 14.0669 177.8 14.8851C187.636 15.2944 195.759 16.5487 201.607 18.6066C207.485 20.6753 210.906 23.4964 211.648 26.93Z" stroke="#B9FF66"/>
</svg>
