<svg width="39" height="38" viewBox="0 0 39 38" fill="none" xmlns="http://www.w3.org/2000/svg">
  <path d="M13.1501 9.50016C13.1501 10.34 12.8165 11.1455 12.2226 11.7393C11.6287 12.3332 10.8233 12.6668 9.98344 12.6668C9.14359 12.6668 8.33813 12.3332 7.74427 11.7393C7.1504 11.1455 6.81677 10.34 6.81677 9.50016C6.81677 8.66031 7.1504 7.85486 7.74427 7.26099C8.33813 6.66713 9.14359 6.3335 9.98344 6.3335C10.8233 6.3335 11.6287 6.66713 12.2226 7.26099C12.8165 7.85486 13.1501 8.66031 13.1501 9.50016ZM13.1501 19.0002C13.1501 19.84 12.8165 20.6455 12.2226 21.2393C11.6287 21.8332 10.8233 22.1668 9.98344 22.1668C9.14359 22.1668 8.33813 21.8332 7.74427 21.2393C7.1504 20.6455 6.81677 19.84 6.81677 19.0002C6.81677 18.1603 7.1504 17.3549 7.74427 16.761C8.33813 16.1671 9.14359 15.8335 9.98344 15.8335C10.8233 15.8335 11.6287 16.1671 12.2226 16.761C12.8165 17.3549 13.1501 18.1603 13.1501 19.0002ZM9.98344 31.6668C10.8233 31.6668 11.6287 31.3332 12.2226 30.7393C12.8165 30.1455 13.1501 29.34 13.1501 28.5002C13.1501 27.6603 12.8165 26.8549 12.2226 26.261C11.6287 25.6671 10.8233 25.3335 9.98344 25.3335C9.14359 25.3335 8.33813 25.6671 7.74427 26.261C7.1504 26.8549 6.81677 27.6603 6.81677 28.5002C6.81677 29.34 7.1504 30.1455 7.74427 30.7393C8.33813 31.3332 9.14359 31.6668 9.98344 31.6668ZM22.6501 9.50016C22.6501 10.34 22.3165 11.1455 21.7226 11.7393C21.1287 12.3332 20.3233 12.6668 19.4834 12.6668C18.6436 12.6668 17.8381 12.3332 17.2443 11.7393C16.6504 11.1455 16.3168 10.34 16.3168 9.50016C16.3168 8.66031 16.6504 7.85486 17.2443 7.26099C17.8381 6.66713 18.6436 6.3335 19.4834 6.3335C20.3233 6.3335 21.1287 6.66713 21.7226 7.26099C22.3165 7.85486 22.6501 8.66031 22.6501 9.50016ZM19.4834 22.1668C20.3233 22.1668 21.1287 21.8332 21.7226 21.2393C22.3165 20.6455 22.6501 19.84 22.6501 19.0002C22.6501 18.1603 22.3165 17.3549 21.7226 16.761C21.1287 16.1671 20.3233 15.8335 19.4834 15.8335C18.6436 15.8335 17.8381 16.1671 17.2443 16.761C16.6504 17.3549 16.3168 18.1603 16.3168 19.0002C16.3168 19.84 16.6504 20.6455 17.2443 21.2393C17.8381 21.8332 18.6436 22.1668 19.4834 22.1668ZM22.6501 28.5002C22.6501 29.34 22.3165 30.1455 21.7226 30.7393C21.1287 31.3332 20.3233 31.6668 19.4834 31.6668C18.6436 31.6668 17.8381 31.3332 17.2443 30.7393C16.6504 30.1455 16.3168 29.34 16.3168 28.5002C16.3168 27.6603 16.6504 26.8549 17.2443 26.261C17.8381 25.6671 18.6436 25.3335 19.4834 25.3335C20.3233 25.3335 21.1287 25.6671 21.7226 26.261C22.3165 26.8549 22.6501 27.6603 22.6501 28.5002ZM28.9834 12.6668C29.8233 12.6668 30.6287 12.3332 31.2226 11.7393C31.8165 11.1455 32.1501 10.34 32.1501 9.50016C32.1501 8.66031 31.8165 7.85486 31.2226 7.26099C30.6287 6.66713 29.8233 6.3335 28.9834 6.3335C28.1436 6.3335 27.3381 6.66713 26.7443 7.26099C26.1504 7.85486 25.8168 8.66031 25.8168 9.50016C25.8168 10.34 26.1504 11.1455 26.7443 11.7393C27.3381 12.3332 28.1436 12.6668 28.9834 12.6668ZM32.1501 19.0002C32.1501 19.84 31.8165 20.6455 31.2226 21.2393C30.6287 21.8332 29.8233 22.1668 28.9834 22.1668C28.1436 22.1668 27.3381 21.8332 26.7443 21.2393C26.1504 20.6455 25.8168 19.84 25.8168 19.0002C25.8168 18.1603 26.1504 17.3549 26.7443 16.761C27.3381 16.1671 28.1436 15.8335 28.9834 15.8335C29.8233 15.8335 30.6287 16.1671 31.2226 16.761C31.8165 17.3549 32.1501 18.1603 32.1501 19.0002ZM28.9834 31.6668C29.8233 31.6668 30.6287 31.3332 31.2226 30.7393C31.8165 30.1455 32.1501 29.34 32.1501 28.5002C32.1501 27.6603 31.8165 26.8549 31.2226 26.261C30.6287 25.6671 29.8233 25.3335 28.9834 25.3335C28.1436 25.3335 27.3381 25.6671 26.7443 26.261C26.1504 26.8549 25.8168 27.6603 25.8168 28.5002C25.8168 29.34 26.1504 30.1455 26.7443 30.7393C27.3381 31.3332 28.1436 31.6668 28.9834 31.6668Z" fill="black" />
</svg>