<svg width="36" height="32" viewBox="0 0 36 32" fill="none" xmlns="http://www.w3.org/2000/svg">
<path d="M31.5527 18.1887L20.7101 29.0332C19.9913 29.7519 19.0164 30.1556 18 30.1556C16.9835 30.1556 16.0087 29.7519 15.2898 29.0332L4.44723 18.1907C3.55094 17.3022 2.83896 16.2454 2.35218 15.081C1.86539 13.9167 1.61338 12.6676 1.61062 11.4056C1.60786 10.1436 1.85439 8.89341 2.33607 7.72692C2.81776 6.56042 3.5251 5.50056 4.41749 4.60816C5.30988 3.71577 6.36975 3.00843 7.53624 2.52675C8.70274 2.04506 9.95288 1.79853 11.2149 1.80129C12.4769 1.80406 13.726 2.05606 14.8904 2.54285C16.0547 3.02964 17.1115 3.74161 18 4.63791C19.8047 2.87816 22.23 1.90026 24.7505 1.91606C27.2711 1.93185 29.684 2.94006 31.4665 4.72228C33.2489 6.50451 34.2575 8.91723 34.2736 11.4378C34.2898 13.9584 33.3122 16.3838 31.5527 18.1887Z" fill="white" stroke="black" stroke-width="2" stroke-linecap="round" stroke-linejoin="round"/>
</svg>
