<svg width="128" height="36" viewBox="0 0 128 36" fill="none" xmlns="http://www.w3.org/2000/svg">
  <path d="M47.4026 8.11942C47.4026 12.0679 43.8241 15.2642 39.4 15.2642C36.6437 15.2642 34.2085 14.0186 32.7755 12.1227H35.8137C36.7925 12.8356 38.0453 13.2665 39.4 13.2665C42.0075 13.2665 44.2 11.6918 44.889 9.54525C44.9282 9.4199 44.9908 9.29455 45.0613 9.18487L45.5233 8.48763L45.2727 8.31527C44.9987 8.72265 44.5367 8.97335 44.0434 8.97335H37.967V7.25765H45.03C44.5758 4.82121 42.2267 2.97234 39.4 2.97234C38.0375 2.97234 36.7925 3.40322 35.8137 4.11613H32.7755C34.2163 2.22025 36.6437 0.974609 39.4 0.974609C43.8163 0.974609 47.4026 4.17097 47.4026 8.11942Z" fill="#7DE600" />
  <path d="M60.1033 14.9741H57.3862L51.3569 8.38549L50.6756 8.96522V14.9741H48.3892V1.25635H50.6756V5.40848C50.6756 5.69835 50.6208 5.98822 50.5112 6.25458L50.245 6.91265L50.5268 7.02233L50.6521 6.70113C50.7931 6.35642 51.0123 6.05089 51.2942 5.80803L56.6658 1.25635H59.7666L52.8759 7.10068L60.0955 14.9819L60.1033 14.9741Z" fill="#7DE600" />
  <path d="M74.9026 8.11942C74.9026 12.0679 71.3242 15.2642 66.9079 15.2642C62.4916 15.2642 58.9053 12.0679 58.9053 8.11942C58.9053 4.17097 62.4837 0.974609 66.9079 0.974609C71.332 0.974609 74.9026 4.17097 74.9026 8.11942ZM72.6162 8.11942C72.6162 5.2756 70.0557 2.97234 66.9 2.97234C63.7444 2.97234 61.1839 5.2756 61.1839 8.11942C61.1839 10.9632 63.7444 13.2665 66.9 13.2665C70.0557 13.2665 72.6162 10.9632 72.6162 8.11942Z" fill="#7DE600" />
  <path d="M46.3534 21.4922V35.2099H44.0669V23.4899H35.7824V35.2099H33.496V21.4922H46.3534Z" fill="black" />
  <path d="M60.174 26.3494C60.174 29.0365 57.9971 31.2066 55.3192 31.2066C52.6412 31.2066 50.4644 29.0287 50.4644 26.3494H52.7508C52.7508 27.9241 53.9019 29.2089 55.3192 29.2089C56.7365 29.2089 57.8875 27.9319 57.8875 26.3494C57.8875 24.7669 56.7365 23.4899 55.3192 23.4899H50.1746V35.2099H47.8882V21.4922H55.3192C58.005 21.4922 60.174 23.6701 60.174 26.3494Z" fill="black" />
  <path d="M76.508 28.3553C76.508 32.3037 72.9295 35.5001 68.5132 35.5001C64.0969 35.5001 60.5106 32.3037 60.5106 28.3553C60.5106 24.4068 64.0891 21.2104 68.5132 21.2104C72.9374 21.2104 76.508 24.4068 76.508 28.3553ZM74.2215 28.3553C74.2215 25.5114 71.661 23.2082 68.5054 23.2082C65.3498 23.2082 62.7892 25.5114 62.7892 28.3553C62.7892 31.1991 65.3498 33.5023 68.5054 33.5023C71.661 33.5023 74.2215 31.1991 74.2215 28.3553Z" fill="black" />
  <path d="M88.5119 32.3585H91.55C90.1093 34.2544 87.6819 35.5001 84.9256 35.5001C80.5093 35.5001 76.923 32.3037 76.923 28.3553C76.923 24.4068 80.5014 21.2104 84.9256 21.2104C87.6819 21.2104 90.1171 22.4561 91.55 24.352H88.5119C87.5331 23.6391 86.2802 23.2082 84.9256 23.2082C81.77 23.2082 79.2094 25.5114 79.2094 28.3553C79.2094 31.1991 81.77 33.5023 84.9256 33.5023C86.2881 33.5023 87.5331 33.0715 88.5119 32.3585Z" fill="black" />
  <path d="M104.611 30.8541C104.501 33.3532 102.481 35.3823 99.9912 35.492C97.2036 35.6173 94.9015 33.4002 94.9015 30.6347H97.188C97.188 32.2094 98.339 33.4942 99.7563 33.4942C101.174 33.4942 102.325 32.2173 102.325 30.6347C102.325 29.0522 101.174 27.7753 99.7563 27.7753H94.6118V35.2021H92.3253V21.4844H98.6131C100.665 21.4844 102.325 22.8945 102.325 24.6259C102.325 24.9941 102.246 25.3466 102.113 25.6678C102.011 25.9107 101.792 26.0831 101.534 26.1222L101.158 26.1849L101.205 26.4826L101.784 26.3886C101.964 26.3573 102.145 26.3886 102.301 26.4826C103.742 27.3757 104.682 28.9974 104.603 30.8306L104.611 30.8541ZM100.046 24.6416C100.046 24.007 99.4039 23.4978 98.6209 23.4978H94.6196V25.7854H98.6209C99.4118 25.7854 100.046 25.2761 100.046 24.6416Z" fill="black" />
  <path d="M107.79 23.4977V25.7853H112.935V27.7831H107.79V33.2122H115.503V35.2099H105.504V21.4922H115.503V23.4899H107.79V23.4977Z" fill="black" />
  <path d="M127.484 21.4922V23.4899H122.629V35.2099H120.342V23.4899H115.487V21.4922H127.484Z" fill="black" />
  <path d="M12.6848 33.5C11.4979 23.5036 11.2578 17.3837 17 12.5" stroke="black" stroke-width="2" />
  <path d="M16.4182 0.5L18.3909 7.64571C18.7377 8.90245 19.7394 9.84501 20.9723 10.0786L28 11.3918L21.165 13.4541C19.9629 13.8166 19.0613 14.8639 18.8378 16.1529L17.5818 23.5L15.6091 16.3543C15.2623 15.0975 14.2606 14.155 13.0277 13.9214L6 12.6082L12.835 10.5459C14.0371 10.1834 14.9387 9.13608 15.1622 7.84711L16.4182 0.5Z" fill="#7DE600" />
  <path d="M12 33.489C8.3911 33.7503 2.39384 29.3965 1 17.5C4.8274 18.7546 12 23.8179 12 33.489Z" fill="black" stroke="black" />
  <path d="M12 33.5C13.2021 29.435 14.4524 26.315 21 24.5C20.3669 26.8775 17.2253 32.9375 12 33.5Z" fill="black" stroke="black" />
</svg>