<svg width="1173" height="457" viewBox="0 0 1173 457" fill="none" xmlns="http://www.w3.org/2000/svg">
<g clip-path="url(#clip0_180_18)">
<path d="M70.3218 340.756L89.5003 358.135M89.5003 358.135V421.857M89.5003 358.135L108.679 340.756" stroke="#AFF83A" stroke-width="15" stroke-linecap="round" stroke-linejoin="round"/>
<path d="M90 390.987C105.913 390.987 121.174 384.278 132.426 372.335C143.679 360.392 150 344.194 150 327.304C150 310.414 143.679 294.216 132.426 282.273C121.174 270.33 105.913 263.62 90 263.62C74.087 263.62 58.8258 270.33 47.5736 282.273C36.3214 294.216 30 310.414 30 327.304C30 344.194 36.3214 360.392 47.5736 372.335C58.8258 384.278 74.087 390.987 90 390.987Z" stroke="#AFF83A" stroke-width="15" stroke-linecap="round" stroke-linejoin="round"/>
</g>
<path d="M1132.73 312.783C1128.13 302.371 1120.6 293.52 1111.06 287.307C1101.52 281.094 1090.38 277.786 1079 277.786C1067.62 277.786 1056.48 281.094 1046.94 287.307C1037.4 293.52 1029.87 302.371 1025.27 312.783C1012.35 319.133 1002.38 330.227 997.45 343.75C992.519 357.273 993.002 372.179 998.8 385.354C1004.6 398.528 1015.26 408.954 1028.56 414.452C1041.87 419.951 1056.78 420.098 1070.19 414.861V439.375C1070.19 441.712 1071.12 443.954 1072.77 445.606C1074.42 447.259 1076.66 448.187 1079 448.187C1081.34 448.187 1083.58 447.259 1085.23 445.606C1086.88 443.954 1087.81 441.712 1087.81 439.375V414.876C1094.36 417.468 1101.33 418.804 1108.38 418.812H1109.79C1122.3 418.504 1134.34 413.999 1143.99 406.022C1153.63 398.044 1160.31 387.056 1162.96 374.824C1165.61 362.591 1164.07 349.823 1158.59 338.572C1153.1 327.32 1144 318.238 1132.73 312.783ZM1109.37 401.187C1101.74 401.375 1094.23 399.275 1087.81 395.158V368.449L1118.19 353.255C1119.25 352.747 1120.19 352.036 1120.96 351.161C1121.74 350.287 1122.33 349.267 1122.71 348.162C1123.08 347.056 1123.24 345.887 1123.16 344.722C1123.08 343.556 1122.77 342.418 1122.24 341.374C1121.72 340.329 1121 339.399 1120.11 338.637C1119.23 337.876 1118.2 337.297 1117.09 336.937C1115.98 336.576 1114.8 336.439 1113.64 336.535C1112.48 336.631 1111.34 336.957 1110.31 337.495L1087.81 348.738V333.625C1087.81 331.288 1086.88 329.046 1085.23 327.394C1083.58 325.741 1081.34 324.812 1079 324.812C1076.66 324.812 1074.42 325.741 1072.77 327.394C1071.12 329.046 1070.19 331.288 1070.19 333.625V366.363L1047.69 355.12C1045.61 354.114 1043.21 353.969 1041.02 354.716C1038.83 355.463 1037.02 357.043 1035.98 359.113C1034.95 361.183 1034.77 363.578 1035.48 365.78C1036.2 367.982 1037.75 369.814 1039.81 370.88L1070.19 386.074V395.158C1063.76 399.266 1056.26 401.365 1048.63 401.187C1028.42 400.681 1011.39 383.151 1011.44 362.904C1011.44 355.297 1013.72 347.866 1017.99 341.569C1022.26 335.272 1028.32 330.4 1035.39 327.581C1036.53 327.12 1037.56 326.424 1038.42 325.539C1039.28 324.653 1039.94 323.598 1040.36 322.44C1043.25 314.516 1048.51 307.672 1055.42 302.836C1062.33 298 1070.57 295.407 1079 295.407C1087.44 295.407 1095.67 298 1102.58 302.836C1109.49 307.672 1114.75 314.516 1117.64 322.44C1118.06 323.598 1118.72 324.653 1119.58 325.539C1120.44 326.424 1121.47 327.12 1122.61 327.581C1129.68 330.399 1135.73 335.269 1140 341.563C1144.27 347.857 1146.56 355.285 1146.56 362.89C1146.62 383.129 1129.58 400.666 1109.37 401.187Z" fill="black"/>
<path d="M221.954 418.078L205.979 398.25H211.417C212.499 398.251 213.561 397.958 214.487 397.401C215.413 396.844 216.167 396.045 216.667 395.091C217.167 394.138 217.394 393.066 217.323 391.994C217.251 390.921 216.884 389.888 216.262 389.009L174.846 330.259C174.4 329.626 173.834 329.087 173.178 328.672C172.523 328.257 171.792 327.975 171.026 327.84C170.261 327.706 169.476 327.723 168.718 327.89C167.959 328.057 167.24 328.371 166.604 328.813C166.097 329.193 165.656 329.651 165.296 330.171C165.148 330.259 123.732 389.009 123.732 389.009C123.112 389.889 122.747 390.922 122.676 391.995C122.606 393.067 122.834 394.138 123.334 395.091C123.834 396.044 124.588 396.842 125.514 397.399C126.439 397.956 127.501 398.25 128.583 398.25H134.021L118.046 418.078C116.626 419.847 116.348 422.261 117.33 424.3C118.318 426.327 120.395 427.625 122.667 427.625H164.083V445.25C164.083 446.808 164.707 448.302 165.816 449.404C166.926 450.506 168.431 451.125 170 451.125C171.569 451.125 173.074 450.506 174.184 449.404C175.293 448.302 175.917 446.808 175.917 445.25V427.625H217.333C218.447 427.623 219.538 427.309 220.48 426.72C221.423 426.13 222.179 425.289 222.661 424.292C223.144 423.295 223.333 422.183 223.208 421.084C223.083 419.985 222.649 418.943 221.954 418.078ZM175.917 415.875V386.5C175.917 384.942 175.293 383.448 174.184 382.346C173.074 381.244 171.569 380.625 170 380.625C168.431 380.625 166.926 381.244 165.816 382.346C164.707 383.448 164.083 384.942 164.083 386.5V415.875H134.979L150.954 396.047C152.374 394.279 152.652 391.864 151.67 389.825C151.186 388.828 150.429 387.987 149.485 387.399C148.54 386.81 147.448 386.499 146.333 386.5H139.943L170 343.871L200.057 386.5H193.667C192.553 386.503 191.463 386.818 190.522 387.408C189.58 387.998 188.825 388.839 188.343 389.836C187.861 390.833 187.672 391.944 187.798 393.043C187.923 394.141 188.358 395.182 189.052 396.047L205.027 415.875H175.917Z" fill="black"/>
<path d="M1059.41 17.6419L1078.64 49.6282L1102.35 20.812L1093.33 57.0231L1130.47 53.4147L1098.48 72.6386L1127.3 96.3516L1091.09 87.3272L1094.7 124.471L1075.47 92.4847L1051.76 121.301L1060.79 85.0898L1023.64 88.6983L1055.63 69.4744L1026.81 45.7613L1063.02 54.7857L1059.41 17.6419Z" fill="#AFF83A"/>
<circle cx="127.381" cy="84.3808" r="30.8819" transform="rotate(-45.0045 127.381 84.3808)" fill="#191A23" stroke="#191A23"/>
<path d="M134.629 102.588L131.185 101.372C118.964 97.0828 110.891 94.2393 108.274 87.8212C106.13 82.5608 108.676 76.7377 114.047 74.5483C117.081 73.3114 120.554 73.5032 123.336 74.8904C124.355 71.9536 126.705 69.3875 129.739 68.1506C135.109 65.9611 141.001 68.3437 143.146 73.6041C145.763 80.0221 141.979 87.6995 136.241 99.3106L134.629 102.588Z" fill="white"/>
<circle cx="1098.57" cy="84.5688" r="17.3077" transform="rotate(12.1757 1098.57 84.5688)" fill="#191A23"/>
<path d="M1095.42 73.8869C1094.29 74.1472 1093.24 74.6435 1092.33 75.3439C1091.41 76.0442 1090.65 76.9333 1090.09 77.9542C1089.53 78.9751 1089.19 80.1052 1089.09 81.2724C1088.99 82.4395 1089.13 83.6179 1089.5 84.7321C1090.26 87.4062 1093.09 89.4489 1094.43 90.2156C1095.77 90.9823 1101.43 95.1101 1101.43 95.1101C1101.43 95.1101 1104.08 88.6264 1104.82 87.2708C1105.56 85.9151 1106.9 82.6945 1106.14 80.0204C1105.87 78.8768 1105.37 77.8002 1104.67 76.8594C1103.97 75.9187 1103.09 75.1345 1102.08 74.5572C1101.07 73.9798 1099.96 73.622 1098.81 73.5066C1097.66 73.3912 1096.51 73.5207 1095.42 73.8869ZM1098.8 85.825C1098.13 86.0143 1097.42 85.997 1096.76 85.7755C1096.09 85.5539 1095.51 85.138 1095.07 84.5802C1094.64 84.0225 1094.37 83.348 1094.32 82.6421C1094.26 81.9361 1094.4 81.2305 1094.74 80.6143C1095.08 79.9981 1095.59 79.4991 1096.2 79.1804C1096.82 78.8617 1097.52 78.7376 1098.21 78.8237C1098.9 78.9099 1099.56 79.2024 1100.09 79.6644C1100.62 80.1264 1101.01 80.737 1101.2 81.4191C1101.33 81.872 1101.37 82.3453 1101.32 82.8118C1101.26 83.2783 1101.12 83.729 1100.9 84.1381C1100.68 84.5472 1100.38 84.9068 1100.02 85.1962C1099.66 85.4856 1099.24 85.6993 1098.8 85.825Z" fill="white"/>
<path d="M199.701 21.3129L203.441 35.3042L214.462 44.7005L200.471 48.4414L191.075 59.4622L187.334 45.4709L176.313 36.0747L190.304 32.3338L199.701 21.3129Z" fill="#AFF83A"/>
<path d="M916.512 253.879L925.486 265.246L939.326 269.513L927.958 278.486L923.692 292.326L914.718 280.959L900.878 276.692L912.246 267.719L916.512 253.879Z" fill="#AFF83A"/>
<defs>
<clipPath id="clip0_180_18">
<rect width="179" height="172" fill="white" transform="translate(0 256)"/>
</clipPath>
</defs>
</svg>
