<svg width="660" height="164" viewBox="0 0 660 164" fill="none" xmlns="http://www.w3.org/2000/svg">
<path d="M143.129 54.6328C143.389 55.2839 143.52 55.8372 143.52 56.293C143.52 57.3997 141.664 59.2227 137.953 61.7617C131.573 66.1888 128.383 70.6159 128.383 75.043C128.383 77.582 130.173 80.0234 133.754 82.3672C139.092 85.8828 141.762 89.9518 141.762 94.5742C141.762 97.7643 140.688 100.434 138.539 102.582C136.456 104.73 133.591 105.805 129.945 105.805C125.648 105.805 122.296 104.242 119.887 101.117C117.543 97.9271 116.371 93.8255 116.371 88.8125C116.371 80.0885 118.324 72.7969 122.23 66.9375C125.29 62.3802 130.466 57.5951 137.758 52.582C138.995 51.8008 139.906 51.4102 140.492 51.4102C141.469 51.4102 142.348 52.4844 143.129 54.6328ZM102.797 54.6328C103.057 55.2839 103.188 55.8372 103.188 56.293C103.188 57.3997 101.332 59.2227 97.6211 61.7617C91.1758 66.1888 87.9531 70.6159 87.9531 75.043C87.9531 77.582 89.776 80.0234 93.4219 82.3672C98.6953 85.8828 101.332 89.9518 101.332 94.5742C101.332 97.7643 100.258 100.434 98.1094 102.582C96.026 104.73 93.194 105.805 89.6133 105.805C85.3164 105.805 81.9635 104.242 79.5547 101.117C77.1458 97.9271 75.9414 93.8255 75.9414 88.8125C75.9414 80.0885 77.8945 72.7969 81.8008 66.9375C84.8607 62.3802 90.0365 57.5951 97.3281 52.582C98.5651 51.8008 99.5091 51.4102 100.16 51.4102C101.137 51.4102 102.016 52.4844 102.797 54.6328Z" fill="#AFF83A"/>
<g filter="url(#filter0_d_200_2)">
<rect x="7.5" y="0.5" width="652" height="155" rx="23.5" stroke="black" shape-rendering="crispEdges"/>
</g>
<defs>
<filter id="filter0_d_200_2" x="0" y="0" width="660" height="164" filterUnits="userSpaceOnUse" color-interpolation-filters="sRGB">
<feFlood flood-opacity="0" result="BackgroundImageFix"/>
<feColorMatrix in="SourceAlpha" type="matrix" values="0 0 0 0 0 0 0 0 0 0 0 0 0 0 0 0 0 0 127 0" result="hardAlpha"/>
<feOffset dx="-7" dy="8"/>
<feComposite in2="hardAlpha" operator="out"/>
<feColorMatrix type="matrix" values="0 0 0 0 0.0980392 0 0 0 0 0.101961 0 0 0 0 0.137255 0 0 0 1 0"/>
<feBlend mode="normal" in2="BackgroundImageFix" result="effect1_dropShadow_200_2"/>
<feBlend mode="normal" in="SourceGraphic" in2="effect1_dropShadow_200_2" result="shape"/>
</filter>
</defs>
</svg>
