<svg width="124" height="58" viewBox="0 0 124 58" fill="none" xmlns="http://www.w3.org/2000/svg">
<path d="M94.1289 3.63281C94.3893 4.28385 94.5195 4.83724 94.5195 5.29297C94.5195 6.39974 92.6641 8.22266 88.9531 10.7617C82.5729 15.1888 79.3828 19.6159 79.3828 24.043C79.3828 26.582 81.1732 29.0234 84.7539 31.3672C90.0924 34.8828 92.7617 38.9518 92.7617 43.5742C92.7617 46.7643 91.6875 49.4336 89.5391 51.582C87.4557 53.7305 84.5911 54.8047 80.9453 54.8047C76.6484 54.8047 73.2956 53.2422 70.8867 50.1172C68.543 46.9271 67.3711 42.8255 67.3711 37.8125C67.3711 29.0885 69.3242 21.7969 73.2305 15.9375C76.2904 11.3802 81.4661 6.59505 88.7578 1.58203C89.9948 0.800781 90.9062 0.410156 91.4922 0.410156C92.4688 0.410156 93.3477 1.48438 94.1289 3.63281ZM53.7969 3.63281C54.0573 4.28385 54.1875 4.83724 54.1875 5.29297C54.1875 6.39974 52.332 8.22266 48.6211 10.7617C42.1758 15.1888 38.9531 19.6159 38.9531 24.043C38.9531 26.582 40.776 29.0234 44.4219 31.3672C49.6953 34.8828 52.332 38.9518 52.332 43.5742C52.332 46.7643 51.2578 49.4336 49.1094 51.582C47.026 53.7305 44.194 54.8047 40.6133 54.8047C36.3164 54.8047 32.9635 53.2422 30.5547 50.1172C28.1458 46.9271 26.9414 42.8255 26.9414 37.8125C26.9414 29.0885 28.8945 21.7969 32.8008 15.9375C35.8607 11.3802 41.0365 6.59505 48.3281 1.58203C49.5651 0.800781 50.5091 0.410156 51.1602 0.410156C52.1367 0.410156 53.0156 1.48438 53.7969 3.63281Z" fill="#AFF83A"/>
</svg>
