<svg width="28" height="27" viewBox="0 0 28 27" fill="none" xmlns="http://www.w3.org/2000/svg">
  <path d="M22.5334 23.625L15.4459 16.5375C14.8834 16.9875 14.2365 17.3438 13.5053 17.6062C12.774 17.8687 11.9959 18 11.1709 18C9.12715 18 7.39765 17.292 5.9824 15.876C4.56715 14.46 3.85915 12.7305 3.8584 10.6875C3.85765 8.6445 4.56565 6.915 5.9824 5.499C7.39915 4.083 9.12865 3.375 11.1709 3.375C13.2131 3.375 14.943 4.083 16.3605 5.499C17.778 6.915 18.4856 8.6445 18.4834 10.6875C18.4834 11.5125 18.3521 12.2906 18.0896 13.0219C17.8271 13.7531 17.4709 14.4 17.0209 14.9625L24.1084 22.05L22.5334 23.625ZM11.1709 15.75C12.5771 15.75 13.7726 15.258 14.7574 14.274C15.7421 13.29 16.2341 12.0945 16.2334 10.6875C16.2326 9.2805 15.7406 8.08538 14.7574 7.10213C13.7741 6.11888 12.5786 5.6265 11.1709 5.625C9.76315 5.6235 8.56802 6.11588 7.58552 7.10213C6.60302 8.08838 6.11065 9.2835 6.1084 10.6875C6.10615 12.0915 6.59852 13.287 7.58552 14.274C8.57252 15.261 9.76765 15.753 11.1709 15.75Z" fill="black" />
</svg>