<svg width="32" height="31" viewBox="0 0 32 31" fill="none" xmlns="http://www.w3.org/2000/svg">
  <g clip-path="url(#clip0_45_65)">
    <path d="M15.9834 31C11.8725 31 7.93006 29.367 5.02324 26.4602C2.11643 23.5533 0.483398 19.6109 0.483398 15.5C0.483398 11.3891 2.11643 7.44666 5.02324 4.53984C7.93006 1.63303 11.8725 0 15.9834 0C20.0943 0 24.0367 1.63303 26.9436 4.53984C29.8504 7.44666 31.4834 11.3891 31.4834 15.5C31.4834 19.6109 29.8504 23.5533 26.9436 26.4602C24.0367 29.367 20.0943 31 15.9834 31ZM17.6245 15.2191C18.6983 14.8327 19.6014 14.0799 20.1748 13.0932C20.7482 12.1064 20.955 10.949 20.7589 9.82474C20.5628 8.70048 19.9764 7.68144 19.1028 6.94706C18.2293 6.21268 17.1246 5.81004 15.9834 5.81004C14.8422 5.81004 13.7375 6.21268 12.864 6.94706C11.9904 7.68144 11.404 8.70048 11.2079 9.82474C11.0118 10.949 11.2186 12.1064 11.792 13.0932C12.3654 14.0799 13.2685 14.8327 14.3423 15.2191C11.0835 16.0057 8.2334 18.9391 8.2334 21.3125C8.2334 22.0778 8.51434 23.2403 10.1709 23.2403H21.7959C23.4525 23.2403 23.7334 22.0778 23.7334 21.3125C23.7334 18.941 20.8853 16.0037 17.6245 15.2191Z" fill="black" />
  </g>
  <defs>
    <clipPath id="clip0_45_65">
      <rect width="31" height="31" fill="white" transform="translate(0.483398)" />
    </clipPath>
  </defs>
</svg>